# xmcd
#
# Track frame offsets: 
#        150
#        11897
#        34182
#        54100
#        77132
#        87055
#        106512
#        124670
#        144737
#
# Disc length: 2101 seconds
#
# Revision: 3
# Processed by: cddbd v1.5PL3 Copyright (c) Steve Scherf et al.
# Submitted via: ExactAudioCopy v0.95a4
#
DISCID=66083309
DTITLE=Pure Prairie League - Bustin' Out
DYEAR=1972
DGENRE=Country Rock
TTITLE0=Jazzman
TTITLE1=Angel #9
TTITLE2=Leave My Heart Alone
TTITLE3=Early Morning Riser
TTITLE4=Falling In And Out Of Love
TTITLE5=Amie
TTITLE6=Boulder Skies
TTITLE7=Angel
TTITLE8=Call Me, Tell Me
EXTD=
EXTT0=
EXTT1=
EXTT2=
EXTT3=
EXTT4=
EXTT5=
EXTT6=
EXTT7=
EXTT8=
PLAYORDER=
